<?xml version="1.0" encoding="UTF-8" standalone="no"?>
<svg xmlns="http://www.w3.org/2000/svg" width="200" height="60" viewBox="0 0 200 60">
  <style>
    .st0{fill:#ECF0F1;}
    .st1{fill:#3498DB;}
    .st2{fill:#E74C3C;}
  </style>
  <g>
    <path class="st0" d="M18.5,15.2c1.6-1.6,3.5-2.8,5.7-3.7c2.2-0.9,4.6-1.3,7.1-1.3c2.5,0,4.9,0.4,7.1,1.3c2.2,0.9,4.1,2.1,5.7,3.7
      c1.6,1.6,2.8,3.5,3.7,5.7c0.9,2.2,1.3,4.6,1.3,7.1c0,2.5-0.4,4.9-1.3,7.1c-0.9,2.2-2.1,4.1-3.7,5.7c-1.6,1.6-3.5,2.8-5.7,3.7
      c-2.2,0.9-4.6,1.3-7.1,1.3c-2.5,0-4.9-0.4-7.1-1.3c-2.2-0.9-4.1-2.1-5.7-3.7c-1.6-1.6-2.8-3.5-3.7-5.7c-0.9-2.2-1.3-4.6-1.3-7.1
      c0-2.5,0.4-4.9,1.3-7.1C15.7,18.7,16.9,16.8,18.5,15.2z"/>
    <path class="st1" d="M22.5,39.3l4.9-4.9l4.9,4.9l-4.9,4.9L22.5,39.3z"/>
    <path class="st2" d="M31.4,30.4l4.9-4.9l4.9,4.9l-4.9,4.9L31.4,30.4z"/>
    <path class="st0" d="M22.5,21.5l4.9-4.9l4.9,4.9l-4.9,4.9L22.5,21.5z"/>
  </g>
  <text x="55" y="35" style="font-family: Arial, sans-serif; font-weight: bold; font-size: 20px; fill: #ECF0F1;">CYBERGEN</text>
</svg>
